<?xml version="1.0" encoding="utf-8"?>
<!-- Generator: Adobe Illustrator 23.0.3, SVG Export Plug-In . SVG Version: 6.00 Build 0)  -->
<svg version="1.1" id="Layer_1" xmlns="http://www.w3.org/2000/svg" xmlns:xlink="http://www.w3.org/1999/xlink" x="0px" y="0px"
	 viewBox="0 0 180 180" style="enable-background:new 0 0 180 180;" xml:space="preserve">
<style type="text/css">
	.st0{fill:#FFFFFF;}
</style>
<path class="st0" d="M144.4,162c15.3,0,25.6-10.3,25.6-25.6V28.6C170,13.3,159.7,3,144.4,3H35.6C20.3,3,10,13.3,10,28.6v148.6
	L23.1,162l0,0V28.6c0-6.9,5.6-12.5,12.5-12.5h108.8c6.9,0,12.5,5.6,12.5,12.5v107.7c0,6.9-5.6,12.5-12.5,12.5H53.1L40,162l-0.1-0.1"
	/>
<path class="st0" d="M66.7,86.2H54.4v41.4h12.3C94.2,127.6,94.2,86.2,66.7,86.2z M66.7,119.3h-4V94.5h4
	C82.8,94.5,82.8,119.3,66.7,119.3L66.7,119.3z"/>
<polygon class="st0" points="64.3,78.4 72.6,78.4 72.6,45.3 82.8,45.3 82.8,37.1 54,37.1 54,45.3 64.3,45.3 "/>
<polygon class="st0" points="105,55.3 90.7,37.1 88,37.1 88,79.1 96.4,79.1 96.4,56 105,67.1 113.6,56 113.5,79.1 121.9,79.1 
	121.9,37.1 119.3,37.1 "/>
<path class="st0" d="M118.9,106.9c2.6-1.8,3.7-5,3.8-8.2c0.2-7.3-4.4-12.6-11.7-12.6H94.6v41.4H111c6.8-0.1,12.3-5.6,12.2-12.4
	c0,0,0,0,0,0C123.2,111.9,121.6,108.8,118.9,106.9z M102.9,94.5h7.4c2.4,0,3.8,1.9,3.8,4.2c0.2,2.1-1.4,4-3.6,4.2
	c-0.1,0-0.2,0-0.3,0h-7.4V94.5L102.9,94.5z M110.3,119.3h-7.4v-8.3h7.4c2.2-0.1,4.1,1.7,4.2,4c0,0.1,0,0.1,0,0.2
	C114.5,117.4,112.6,119.3,110.3,119.3C110.3,119.3,110.3,119.3,110.3,119.3L110.3,119.3z"/>
</svg>
