<?xml version="1.0" encoding="utf-8"?>
<!-- Generator: Adobe Illustrator 23.0.3, SVG Export Plug-In . SVG Version: 6.00 Build 0)  -->
<svg version="1.1" id="Layer_1" xmlns="http://www.w3.org/2000/svg" xmlns:xlink="http://www.w3.org/1999/xlink" x="0px" y="0px"
	 viewBox="0 0 300 250" style="enable-background:new 0 0 300 250;" xml:space="preserve">
<style type="text/css">
	.st0{fill:#FFFFFF;}
</style>
<title>PrimaryLogo_Green</title>
<path class="st0" d="M251.3,221.9c14.6,0,24.5-9.9,24.5-24.5V38.1c0-14.6-9.9-24.5-24.5-24.5H48.8c-14.6,0-24.5,9.9-24.5,24.5v198.3
	l12.6-14.6l0,0V38.1c0-6.6,5.3-11.9,11.9-11.9h202.4c6.6,0,11.9,5.3,11.9,11.9v159.3c0,6.6-5.3,11.9-11.9,11.9H67.4l-12.6,12.6
	l-0.1-0.1"/>
<polygon class="st0" points="85.8,90.9 92.7,90.9 92.7,63.1 101.3,63.1 101.3,56.2 77.1,56.2 77.1,63.1 85.8,63.1 "/>
<polygon class="st0" points="123.8,90.9 130.9,90.9 130.9,56.2 123.8,56.2 123.8,70.1 113.4,70.1 113.4,56.2 106.5,56.2 106.5,90.9 
	113.4,90.9 113.4,77 123.8,77 "/>
<polygon class="st0" points="156.6,83.9 143.5,83.9 143.5,77 154.8,77 154.8,70.1 143.5,70.1 143.5,63.1 156,63.1 156,56.2 
	136.6,56.2 136.6,90.9 156.6,90.9 "/>
<polygon class="st0" points="93,114.9 79.3,99.7 77.1,99.7 77.1,134.9 84.1,134.9 84.1,115.6 93,124.9 101.8,115.6 101.8,134.9 
	108.8,134.9 108.8,99.7 106.7,99.7 "/>
<path class="st0" d="M132.4,99.7c-23.9,0-23.9,35.8,0,35.8S156.3,99.7,132.4,99.7z M132.4,128.3c-13.9,0-13.9-21.4,0-21.4
	C146.3,106.9,146.3,128.3,132.4,128.3z"/>
<rect x="189.8" y="100.3" class="st0" width="6.9" height="34.7"/>
<polygon class="st0" points="209.5,128 209.5,121.1 220.5,121.1 220.5,114.1 209.5,114.1 209.5,107.2 221.9,107.2 221.9,100.3 
	202.5,100.3 202.5,134.9 222.5,134.9 222.5,128 "/>
<path class="st0" d="M87.4,144.3H77.1V179h10.3C110.5,179,110.5,144.3,87.4,144.3z M87.4,172.1H84v-20.8h3.4
	C100.9,151.3,100.9,172.1,87.4,172.1z"/>
<path class="st0" d="M130.6,161.6c2.2-1.5,3.1-4.2,3.2-6.8c0.1-6.1-3.7-10.5-9.9-10.5h-13.7v34.8h13.7c5.7,0,10.3-4.7,10.2-10.4l0,0
	C134.3,165.8,132.9,163.2,130.6,161.6z M117.3,151.2h6.2c1.9,0.1,3.4,1.8,3.2,3.8c-0.1,1.7-1.5,3.1-3.2,3.2h-6.2V151.2z
	 M123.4,172.1h-6.2v-6.9h6.2c1.9,0,3.4,1.4,3.5,3.3v0.1C126.9,170.5,125.4,172.1,123.4,172.1L123.4,172.1L123.4,172.1z"/>
<polygon class="st0" points="168.4,119 159.3,100.3 151.3,100.3 167.5,135.7 169.1,135.7 185.5,100.3 177.5,100.3 "/>
</svg>
